<mxfile host="app.diagrams.net" modified="2023-12-25T16:32:13.646Z" agent="Mozilla/5.0 (Windows NT 10.0; Win64; x64) AppleWebKit/537.36 (KHTML, like Gecko) Chrome/120.0.0.0 Safari/537.36 Edg/120.0.0.0" etag="0i8KKk6emxqvvVrM-Zqq" version="22.1.11" type="device">
  <diagram id="jurhLoHlSIufEqiO0e4D" name="Page-1">
    <mxGraphModel dx="2104" dy="687" grid="1" gridSize="10" guides="1" tooltips="1" connect="1" arrows="1" fold="1" page="1" pageScale="1" pageWidth="850" pageHeight="1100" math="0" shadow="0">
      <root>
        <mxCell id="0" />
        <mxCell id="1" parent="0" />
        <mxCell id="lgRkeIlRiCcvQcJWJEhC-14" value="" style="edgeStyle=orthogonalEdgeStyle;rounded=0;orthogonalLoop=1;jettySize=auto;html=1;" parent="1" source="lgRkeIlRiCcvQcJWJEhC-1" target="lgRkeIlRiCcvQcJWJEhC-3" edge="1">
          <mxGeometry relative="1" as="geometry" />
        </mxCell>
        <mxCell id="LTllZ5rqXYtzeEzusiPi-33" value="" style="edgeStyle=orthogonalEdgeStyle;rounded=0;orthogonalLoop=1;jettySize=auto;html=1;" edge="1" parent="1" source="lgRkeIlRiCcvQcJWJEhC-1" target="LTllZ5rqXYtzeEzusiPi-32">
          <mxGeometry relative="1" as="geometry" />
        </mxCell>
        <mxCell id="lgRkeIlRiCcvQcJWJEhC-1" value="tattu 6s" style="rounded=0;whiteSpace=wrap;html=1;" parent="1" vertex="1">
          <mxGeometry x="190" y="220" width="120" height="60" as="geometry" />
        </mxCell>
        <mxCell id="lgRkeIlRiCcvQcJWJEhC-4" value="" style="edgeStyle=orthogonalEdgeStyle;rounded=0;orthogonalLoop=1;jettySize=auto;html=1;" parent="1" source="lgRkeIlRiCcvQcJWJEhC-3" target="lgRkeIlRiCcvQcJWJEhC-1" edge="1">
          <mxGeometry relative="1" as="geometry" />
        </mxCell>
        <mxCell id="lgRkeIlRiCcvQcJWJEhC-6" value="" style="edgeStyle=orthogonalEdgeStyle;rounded=0;orthogonalLoop=1;jettySize=auto;html=1;" parent="1" source="lgRkeIlRiCcvQcJWJEhC-3" target="lgRkeIlRiCcvQcJWJEhC-5" edge="1">
          <mxGeometry relative="1" as="geometry" />
        </mxCell>
        <mxCell id="lgRkeIlRiCcvQcJWJEhC-3" value="Fuse" style="ellipse;whiteSpace=wrap;html=1;" parent="1" vertex="1">
          <mxGeometry x="230" y="300" width="40" height="80" as="geometry" />
        </mxCell>
        <mxCell id="lgRkeIlRiCcvQcJWJEhC-8" value="" style="edgeStyle=orthogonalEdgeStyle;rounded=0;orthogonalLoop=1;jettySize=auto;html=1;" parent="1" source="lgRkeIlRiCcvQcJWJEhC-5" target="lgRkeIlRiCcvQcJWJEhC-7" edge="1">
          <mxGeometry relative="1" as="geometry" />
        </mxCell>
        <mxCell id="lgRkeIlRiCcvQcJWJEhC-15" value="" style="edgeStyle=orthogonalEdgeStyle;rounded=0;orthogonalLoop=1;jettySize=auto;html=1;" parent="1" source="lgRkeIlRiCcvQcJWJEhC-5" target="lgRkeIlRiCcvQcJWJEhC-3" edge="1">
          <mxGeometry relative="1" as="geometry" />
        </mxCell>
        <mxCell id="LTllZ5rqXYtzeEzusiPi-2" style="edgeStyle=orthogonalEdgeStyle;rounded=0;orthogonalLoop=1;jettySize=auto;html=1;exitX=0;exitY=0.5;exitDx=0;exitDy=0;entryX=1;entryY=0.5;entryDx=0;entryDy=0;" edge="1" parent="1" source="lgRkeIlRiCcvQcJWJEhC-5" target="LTllZ5rqXYtzeEzusiPi-1">
          <mxGeometry relative="1" as="geometry">
            <Array as="points">
              <mxPoint x="120" y="430" />
              <mxPoint x="120" y="480" />
            </Array>
          </mxGeometry>
        </mxCell>
        <mxCell id="lgRkeIlRiCcvQcJWJEhC-5" value="tattu 6s" style="rounded=0;whiteSpace=wrap;html=1;" parent="1" vertex="1">
          <mxGeometry x="190" y="400" width="120" height="60" as="geometry" />
        </mxCell>
        <mxCell id="lgRkeIlRiCcvQcJWJEhC-7" value="Contactor" style="rounded=1;whiteSpace=wrap;html=1;" parent="1" vertex="1">
          <mxGeometry x="190" y="480" width="120" height="60" as="geometry" />
        </mxCell>
        <mxCell id="lgRkeIlRiCcvQcJWJEhC-39" value="Output Connector" style="shape=parallelogram;perimeter=parallelogramPerimeter;whiteSpace=wrap;html=1;fixedSize=1;" parent="1" vertex="1">
          <mxGeometry x="590" y="330" width="120" height="60" as="geometry" />
        </mxCell>
        <mxCell id="lgRkeIlRiCcvQcJWJEhC-40" value="" style="endArrow=classic;html=1;rounded=0;exitX=0.5;exitY=0;exitDx=0;exitDy=0;entryX=0.5;entryY=0;entryDx=0;entryDy=0;" parent="1" source="lgRkeIlRiCcvQcJWJEhC-1" target="lgRkeIlRiCcvQcJWJEhC-39" edge="1">
          <mxGeometry width="50" height="50" relative="1" as="geometry">
            <mxPoint x="100" y="430" as="sourcePoint" />
            <mxPoint x="150" y="380" as="targetPoint" />
            <Array as="points">
              <mxPoint x="250" y="130" />
              <mxPoint x="650" y="130" />
            </Array>
          </mxGeometry>
        </mxCell>
        <mxCell id="lgRkeIlRiCcvQcJWJEhC-41" value="" style="endArrow=classic;html=1;rounded=0;exitX=0.5;exitY=1;exitDx=0;exitDy=0;entryX=0.5;entryY=1;entryDx=0;entryDy=0;" parent="1" source="lgRkeIlRiCcvQcJWJEhC-7" target="lgRkeIlRiCcvQcJWJEhC-39" edge="1">
          <mxGeometry width="50" height="50" relative="1" as="geometry">
            <mxPoint x="100" y="430" as="sourcePoint" />
            <mxPoint x="150" y="380" as="targetPoint" />
            <Array as="points">
              <mxPoint x="250" y="630" />
              <mxPoint x="650" y="630" />
            </Array>
          </mxGeometry>
        </mxCell>
        <mxCell id="lgRkeIlRiCcvQcJWJEhC-47" value="" style="edgeStyle=orthogonalEdgeStyle;rounded=0;orthogonalLoop=1;jettySize=auto;html=1;" parent="1" source="lgRkeIlRiCcvQcJWJEhC-43" target="lgRkeIlRiCcvQcJWJEhC-46" edge="1">
          <mxGeometry relative="1" as="geometry" />
        </mxCell>
        <mxCell id="LTllZ5rqXYtzeEzusiPi-7" style="edgeStyle=orthogonalEdgeStyle;rounded=0;orthogonalLoop=1;jettySize=auto;html=1;exitX=0.25;exitY=1;exitDx=0;exitDy=0;entryX=0.25;entryY=0;entryDx=0;entryDy=0;" edge="1" parent="1" source="lgRkeIlRiCcvQcJWJEhC-43" target="LTllZ5rqXYtzeEzusiPi-6">
          <mxGeometry relative="1" as="geometry" />
        </mxCell>
        <mxCell id="lgRkeIlRiCcvQcJWJEhC-43" value="BMS Slave" style="shape=process;whiteSpace=wrap;html=1;backgroundOutline=1;" parent="1" vertex="1">
          <mxGeometry x="-210" y="290" width="120" height="60" as="geometry" />
        </mxCell>
        <mxCell id="lgRkeIlRiCcvQcJWJEhC-44" value="" style="endArrow=classic;html=1;rounded=0;entryX=1;entryY=0.5;entryDx=0;entryDy=0;exitX=0;exitY=0.5;exitDx=0;exitDy=0;" parent="1" target="lgRkeIlRiCcvQcJWJEhC-43" edge="1" source="lgRkeIlRiCcvQcJWJEhC-1">
          <mxGeometry width="50" height="50" relative="1" as="geometry">
            <mxPoint x="140" y="250" as="sourcePoint" />
            <mxPoint x="140" y="170" as="targetPoint" />
            <Array as="points">
              <mxPoint x="140" y="250" />
              <mxPoint x="140" y="290" />
              <mxPoint x="140" y="320" />
            </Array>
          </mxGeometry>
        </mxCell>
        <mxCell id="lgRkeIlRiCcvQcJWJEhC-46" value="Slave Connector for daisy chaining" style="whiteSpace=wrap;html=1;" parent="1" vertex="1">
          <mxGeometry x="-410" y="290" width="120" height="60" as="geometry" />
        </mxCell>
        <mxCell id="LTllZ5rqXYtzeEzusiPi-3" value="" style="edgeStyle=orthogonalEdgeStyle;rounded=0;orthogonalLoop=1;jettySize=auto;html=1;" edge="1" parent="1" source="LTllZ5rqXYtzeEzusiPi-1" target="lgRkeIlRiCcvQcJWJEhC-43">
          <mxGeometry relative="1" as="geometry" />
        </mxCell>
        <mxCell id="LTllZ5rqXYtzeEzusiPi-8" style="edgeStyle=orthogonalEdgeStyle;rounded=0;orthogonalLoop=1;jettySize=auto;html=1;exitX=0.75;exitY=1;exitDx=0;exitDy=0;entryX=0.75;entryY=0;entryDx=0;entryDy=0;" edge="1" parent="1" source="LTllZ5rqXYtzeEzusiPi-1" target="LTllZ5rqXYtzeEzusiPi-6">
          <mxGeometry relative="1" as="geometry" />
        </mxCell>
        <mxCell id="LTllZ5rqXYtzeEzusiPi-1" value="BMS Slave" style="shape=process;whiteSpace=wrap;html=1;backgroundOutline=1;" vertex="1" parent="1">
          <mxGeometry x="-210" y="450" width="120" height="60" as="geometry" />
        </mxCell>
        <mxCell id="LTllZ5rqXYtzeEzusiPi-5" value="" style="edgeStyle=orthogonalEdgeStyle;rounded=0;orthogonalLoop=1;jettySize=auto;html=1;" edge="1" parent="1" source="LTllZ5rqXYtzeEzusiPi-4" target="LTllZ5rqXYtzeEzusiPi-1">
          <mxGeometry relative="1" as="geometry" />
        </mxCell>
        <mxCell id="LTllZ5rqXYtzeEzusiPi-4" value="Slave Connector for daisy chaining" style="whiteSpace=wrap;html=1;" vertex="1" parent="1">
          <mxGeometry x="-410" y="450" width="120" height="60" as="geometry" />
        </mxCell>
        <mxCell id="LTllZ5rqXYtzeEzusiPi-26" style="edgeStyle=orthogonalEdgeStyle;rounded=0;orthogonalLoop=1;jettySize=auto;html=1;exitX=1;exitY=0.5;exitDx=0;exitDy=0;entryX=0;entryY=0.5;entryDx=0;entryDy=0;" edge="1" parent="1" source="LTllZ5rqXYtzeEzusiPi-6" target="LTllZ5rqXYtzeEzusiPi-24">
          <mxGeometry relative="1" as="geometry" />
        </mxCell>
        <mxCell id="LTllZ5rqXYtzeEzusiPi-6" value="AND Gate Circuitry" style="rounded=0;whiteSpace=wrap;html=1;" vertex="1" parent="1">
          <mxGeometry x="-270" y="540" width="120" height="60" as="geometry" />
        </mxCell>
        <mxCell id="LTllZ5rqXYtzeEzusiPi-11" value="" style="edgeStyle=orthogonalEdgeStyle;rounded=0;orthogonalLoop=1;jettySize=auto;html=1;" edge="1" parent="1" source="LTllZ5rqXYtzeEzusiPi-9" target="LTllZ5rqXYtzeEzusiPi-6">
          <mxGeometry relative="1" as="geometry" />
        </mxCell>
        <mxCell id="LTllZ5rqXYtzeEzusiPi-9" value="Elctronics input to turn on power isolated" style="rounded=0;whiteSpace=wrap;html=1;" vertex="1" parent="1">
          <mxGeometry x="-470" y="540" width="120" height="60" as="geometry" />
        </mxCell>
        <mxCell id="LTllZ5rqXYtzeEzusiPi-15" value="" style="edgeStyle=orthogonalEdgeStyle;rounded=0;orthogonalLoop=1;jettySize=auto;html=1;" edge="1" parent="1" source="LTllZ5rqXYtzeEzusiPi-13" target="LTllZ5rqXYtzeEzusiPi-14">
          <mxGeometry relative="1" as="geometry" />
        </mxCell>
        <mxCell id="LTllZ5rqXYtzeEzusiPi-28" style="edgeStyle=orthogonalEdgeStyle;rounded=0;orthogonalLoop=1;jettySize=auto;html=1;exitX=0.25;exitY=0;exitDx=0;exitDy=0;entryX=0;entryY=0.75;entryDx=0;entryDy=0;" edge="1" parent="1" source="LTllZ5rqXYtzeEzusiPi-13" target="lgRkeIlRiCcvQcJWJEhC-43">
          <mxGeometry relative="1" as="geometry">
            <Array as="points">
              <mxPoint x="-440" y="690" />
              <mxPoint x="-510" y="690" />
              <mxPoint x="-510" y="380" />
              <mxPoint x="-230" y="380" />
              <mxPoint x="-230" y="335" />
            </Array>
          </mxGeometry>
        </mxCell>
        <mxCell id="LTllZ5rqXYtzeEzusiPi-13" value="Charge Connector&lt;br&gt;" style="rounded=0;whiteSpace=wrap;html=1;" vertex="1" parent="1">
          <mxGeometry x="-470" y="730" width="120" height="60" as="geometry" />
        </mxCell>
        <mxCell id="LTllZ5rqXYtzeEzusiPi-17" value="" style="edgeStyle=orthogonalEdgeStyle;rounded=0;orthogonalLoop=1;jettySize=auto;html=1;" edge="1" parent="1" source="LTllZ5rqXYtzeEzusiPi-14" target="LTllZ5rqXYtzeEzusiPi-16">
          <mxGeometry relative="1" as="geometry" />
        </mxCell>
        <mxCell id="LTllZ5rqXYtzeEzusiPi-36" style="edgeStyle=orthogonalEdgeStyle;rounded=0;orthogonalLoop=1;jettySize=auto;html=1;exitX=1;exitY=0.25;exitDx=0;exitDy=0;entryX=0;entryY=0.25;entryDx=0;entryDy=0;" edge="1" parent="1" source="LTllZ5rqXYtzeEzusiPi-14" target="LTllZ5rqXYtzeEzusiPi-16">
          <mxGeometry relative="1" as="geometry" />
        </mxCell>
        <mxCell id="LTllZ5rqXYtzeEzusiPi-14" value="CC/CV buck converter" style="rounded=0;whiteSpace=wrap;html=1;" vertex="1" parent="1">
          <mxGeometry x="-270" y="730" width="120" height="60" as="geometry" />
        </mxCell>
        <mxCell id="LTllZ5rqXYtzeEzusiPi-23" style="edgeStyle=orthogonalEdgeStyle;rounded=0;orthogonalLoop=1;jettySize=auto;html=1;exitX=1;exitY=0.25;exitDx=0;exitDy=0;entryX=0;entryY=0.25;entryDx=0;entryDy=0;" edge="1" parent="1" source="LTllZ5rqXYtzeEzusiPi-16" target="lgRkeIlRiCcvQcJWJEhC-1">
          <mxGeometry relative="1" as="geometry">
            <Array as="points">
              <mxPoint x="130" y="745" />
              <mxPoint x="130" y="235" />
            </Array>
          </mxGeometry>
        </mxCell>
        <mxCell id="LTllZ5rqXYtzeEzusiPi-35" style="edgeStyle=orthogonalEdgeStyle;rounded=0;orthogonalLoop=1;jettySize=auto;html=1;exitX=0.75;exitY=0;exitDx=0;exitDy=0;entryX=0.75;entryY=1;entryDx=0;entryDy=0;" edge="1" parent="1" source="LTllZ5rqXYtzeEzusiPi-16" target="LTllZ5rqXYtzeEzusiPi-24">
          <mxGeometry relative="1" as="geometry" />
        </mxCell>
        <mxCell id="LTllZ5rqXYtzeEzusiPi-16" value="DPST Normally open" style="rounded=0;whiteSpace=wrap;html=1;" vertex="1" parent="1">
          <mxGeometry x="-70" y="730" width="120" height="60" as="geometry" />
        </mxCell>
        <mxCell id="LTllZ5rqXYtzeEzusiPi-20" style="edgeStyle=orthogonalEdgeStyle;rounded=0;orthogonalLoop=1;jettySize=auto;html=1;exitX=1;exitY=0.5;exitDx=0;exitDy=0;entryX=0.5;entryY=0;entryDx=0;entryDy=0;" edge="1" parent="1" source="LTllZ5rqXYtzeEzusiPi-18" target="LTllZ5rqXYtzeEzusiPi-16">
          <mxGeometry relative="1" as="geometry">
            <Array as="points">
              <mxPoint x="-10" y="670" />
            </Array>
          </mxGeometry>
        </mxCell>
        <mxCell id="LTllZ5rqXYtzeEzusiPi-18" value="60V Comparator" style="rounded=0;whiteSpace=wrap;html=1;" vertex="1" parent="1">
          <mxGeometry x="-370" y="640" width="120" height="60" as="geometry" />
        </mxCell>
        <mxCell id="LTllZ5rqXYtzeEzusiPi-19" value="" style="endArrow=classic;html=1;rounded=0;entryX=0.5;entryY=1;entryDx=0;entryDy=0;" edge="1" parent="1" target="LTllZ5rqXYtzeEzusiPi-18">
          <mxGeometry width="50" height="50" relative="1" as="geometry">
            <mxPoint x="-310" y="760" as="sourcePoint" />
            <mxPoint x="150" y="480" as="targetPoint" />
          </mxGeometry>
        </mxCell>
        <mxCell id="LTllZ5rqXYtzeEzusiPi-27" style="edgeStyle=orthogonalEdgeStyle;rounded=0;orthogonalLoop=1;jettySize=auto;html=1;exitX=1;exitY=0.5;exitDx=0;exitDy=0;entryX=0;entryY=0.5;entryDx=0;entryDy=0;" edge="1" parent="1" source="LTllZ5rqXYtzeEzusiPi-24" target="lgRkeIlRiCcvQcJWJEhC-7">
          <mxGeometry relative="1" as="geometry">
            <Array as="points">
              <mxPoint x="160" y="580" />
              <mxPoint x="160" y="510" />
            </Array>
          </mxGeometry>
        </mxCell>
        <mxCell id="LTllZ5rqXYtzeEzusiPi-24" value="SPDT Relay" style="rounded=0;whiteSpace=wrap;html=1;" vertex="1" parent="1">
          <mxGeometry x="-70" y="550" width="120" height="60" as="geometry" />
        </mxCell>
        <mxCell id="LTllZ5rqXYtzeEzusiPi-29" value="" style="endArrow=classic;html=1;rounded=0;" edge="1" parent="1">
          <mxGeometry width="50" height="50" relative="1" as="geometry">
            <mxPoint x="-510" y="430" as="sourcePoint" />
            <mxPoint x="-210" y="460" as="targetPoint" />
            <Array as="points">
              <mxPoint x="-280" y="430" />
              <mxPoint x="-280" y="460" />
            </Array>
          </mxGeometry>
        </mxCell>
        <mxCell id="LTllZ5rqXYtzeEzusiPi-31" style="edgeStyle=orthogonalEdgeStyle;rounded=0;orthogonalLoop=1;jettySize=auto;html=1;exitX=0.25;exitY=1;exitDx=0;exitDy=0;entryX=0.612;entryY=-0.06;entryDx=0;entryDy=0;entryPerimeter=0;" edge="1" parent="1" source="lgRkeIlRiCcvQcJWJEhC-5" target="LTllZ5rqXYtzeEzusiPi-24">
          <mxGeometry relative="1" as="geometry">
            <Array as="points">
              <mxPoint x="220" y="470" />
              <mxPoint x="170" y="470" />
              <mxPoint x="170" y="490" />
              <mxPoint x="3" y="490" />
            </Array>
          </mxGeometry>
        </mxCell>
        <mxCell id="LTllZ5rqXYtzeEzusiPi-34" style="edgeStyle=orthogonalEdgeStyle;rounded=0;orthogonalLoop=1;jettySize=auto;html=1;entryX=1;entryY=0.5;entryDx=0;entryDy=0;" edge="1" parent="1" source="LTllZ5rqXYtzeEzusiPi-32" target="lgRkeIlRiCcvQcJWJEhC-7">
          <mxGeometry relative="1" as="geometry" />
        </mxCell>
        <mxCell id="LTllZ5rqXYtzeEzusiPi-32" value="Resistor" style="rounded=0;whiteSpace=wrap;html=1;" vertex="1" parent="1">
          <mxGeometry x="350" y="420" width="120" height="60" as="geometry" />
        </mxCell>
      </root>
    </mxGraphModel>
  </diagram>
</mxfile>
